<svg width="30" height="30" viewBox="0 0 30 30" fill="none" xmlns="http://www.w3.org/2000/svg">
<path d="M25.3125 7.5H20.625C20.625 6.00816 20.0324 4.57742 18.9775 3.52252C17.9226 2.46763 16.4918 1.875 15 1.875C13.5082 1.875 12.0774 2.46763 11.0225 3.52252C9.96763 4.57742 9.375 6.00816 9.375 7.5H4.6875C4.19022 7.5 3.71331 7.69754 3.36167 8.04918C3.01004 8.40081 2.8125 8.87772 2.8125 9.375V23.4375C2.8125 23.9348 3.01004 24.4117 3.36167 24.7633C3.71331 25.115 4.19022 25.3125 4.6875 25.3125H25.3125C25.8098 25.3125 26.2867 25.115 26.6383 24.7633C26.99 24.4117 27.1875 23.9348 27.1875 23.4375V9.375C27.1875 8.87772 26.99 8.40081 26.6383 8.04918C26.2867 7.69754 25.8098 7.5 25.3125 7.5ZM15 3.75C15.9946 3.75 16.9484 4.14509 17.6516 4.84835C18.3549 5.55161 18.75 6.50544 18.75 7.5H11.25C11.25 6.50544 11.6451 5.55161 12.3483 4.84835C13.0516 4.14509 14.0054 3.75 15 3.75ZM25.3125 23.4375H4.6875V9.375H9.375V11.25C9.375 11.4986 9.47377 11.7371 9.64959 11.9129C9.8254 12.0887 10.0639 12.1875 10.3125 12.1875C10.5611 12.1875 10.7996 12.0887 10.9754 11.9129C11.1512 11.7371 11.25 11.4986 11.25 11.25V9.375H18.75V11.25C18.75 11.4986 18.8488 11.7371 19.0246 11.9129C19.2004 12.0887 19.4389 12.1875 19.6875 12.1875C19.9361 12.1875 20.1746 12.0887 20.3504 11.9129C20.5262 11.7371 20.625 11.4986 20.625 11.25V9.375H25.3125V23.4375Z" fill="#53377A"/>
</svg>
