<svg width="24" height="18" viewBox="0 0 24 18" fill="none" xmlns="http://www.w3.org/2000/svg">
<path d="M12.5429 11.9475L20.5079 5.67787C20.6409 5.57326 20.7151 5.43427 20.7151 5.28974C20.7151 5.14521 20.6409 5.00623 20.5079 4.90162L20.4989 4.89487C20.4345 4.84398 20.3569 4.80346 20.2709 4.77576C20.1849 4.74807 20.0923 4.7338 19.9987 4.7338C19.9051 4.7338 19.8125 4.74807 19.7265 4.77576C19.6405 4.80346 19.5629 4.84398 19.4984 4.89487L11.9984 10.7989L4.50144 4.89487C4.43698 4.84398 4.35939 4.80345 4.27339 4.77576C4.18739 4.74807 4.09478 4.73379 4.00119 4.73379C3.9076 4.73379 3.81499 4.74807 3.72899 4.77576C3.64299 4.80345 3.5654 4.84398 3.50094 4.89487L3.49194 4.90162C3.35898 5.00623 3.2848 5.14521 3.2848 5.28974C3.2848 5.43427 3.35898 5.57325 3.49194 5.67787L11.4569 11.9475C11.527 12.0026 11.6112 12.0465 11.7046 12.0765C11.7979 12.1065 11.8984 12.122 11.9999 12.122C12.1015 12.122 12.202 12.1065 12.2953 12.0765C12.3887 12.0465 12.4729 12.0026 12.5429 11.9475Z" fill="#333333"/>
</svg>
