<svg width="30" height="30" viewBox="0 0 30 30" fill="none" xmlns="http://www.w3.org/2000/svg">
<path d="M9.72663 5.67597C10.462 5.67597 11.7913 6.02772 13.9476 8.15134L15.0167 9.20397L16.0697 8.13447C17.5667 6.61347 19.1597 5.66884 20.227 5.66884C21.6662 5.66884 22.8006 6.16122 23.9069 7.26484C24.949 8.30472 25.5239 9.68734 25.5239 11.1581C25.5246 12.6296 24.9509 14.0133 23.8971 15.0645C23.8112 15.1515 19.2801 20.0403 15.484 24.1372C15.3051 24.3071 15.1007 24.3322 14.992 24.3322C14.8848 24.3322 14.6826 24.3082 14.5045 24.1425C13.5794 23.1134 6.87438 15.6581 6.09478 14.8792C5.05115 13.8382 4.477 12.4545 4.477 10.9833C4.47736 9.51259 5.05148 8.13034 6.09513 7.08934C7.10986 6.07534 8.29788 5.67597 9.72663 5.67597ZM9.72658 4.17597C7.93296 4.17597 6.35158 4.71257 5.03496 6.02772C2.29108 8.76447 2.29108 13.2026 5.03496 15.9408C5.81833 16.7246 13.4222 25.1831 13.4222 25.1831C13.8553 25.6166 14.4242 25.8319 14.9916 25.8319C15.5593 25.8319 16.1259 25.6166 16.5598 25.1831C16.5598 25.1831 24.8773 16.206 24.9658 16.1163C27.7089 13.3769 27.7089 8.93882 24.9658 6.20209C23.6038 4.84272 22.0824 4.16809 20.2266 4.16809C18.4536 4.16809 16.4766 5.58184 14.9998 7.08184C13.4766 5.58219 11.5607 4.17597 9.72658 4.17597Z" fill="#53377A"/>
</svg>
