<svg width="9" height="18" viewBox="0 0 9 18" fill="none" xmlns="http://www.w3.org/2000/svg">
<path d="M7.94746 8.45706L1.67784 0.492055C1.57323 0.359088 1.43424 0.284912 1.28971 0.284912C1.14518 0.284912 1.0062 0.359088 0.901587 0.492055L0.894836 0.501055C0.843947 0.565515 0.803425 0.643105 0.775734 0.729104C0.748044 0.815104 0.733765 0.907715 0.733765 1.00131C0.733765 1.0949 0.748044 1.18751 0.775734 1.27351C0.803425 1.35951 0.843947 1.4371 0.894836 1.50156L6.79884 9.00156L0.894837 16.4986C0.843948 16.563 0.803425 16.6406 0.775735 16.7266C0.748044 16.8126 0.733765 16.9052 0.733765 16.9988C0.733765 17.0924 0.748044 17.185 0.775735 17.271C0.803425 17.357 0.843948 17.4346 0.894837 17.4991L0.901587 17.5081C1.0062 17.641 1.14518 17.7152 1.28971 17.7152C1.43424 17.7152 1.57323 17.641 1.67784 17.5081L7.94746 9.54306C8.0026 9.47301 8.0465 9.38877 8.07649 9.29543C8.10648 9.20209 8.12195 9.1016 8.12195 9.00006C8.12195 8.89851 8.10648 8.79802 8.07649 8.70469C8.0465 8.61135 8.0026 8.5271 7.94746 8.45706Z" fill="#333333"/>
</svg>
