<svg width="30" height="30" viewBox="0 0 30 30" fill="none" xmlns="http://www.w3.org/2000/svg">
<path d="M19.9125 14.3212L9.46313 4.36499C9.28878 4.19878 9.05713 4.10606 8.81625 4.10606C8.57537 4.10606 8.34373 4.19878 8.16938 4.36499L8.15813 4.37624C8.07331 4.45682 8.00578 4.5538 7.95962 4.6613C7.91347 4.7688 7.88967 4.88457 7.88967 5.00155C7.88967 5.11854 7.91347 5.23431 7.95962 5.34181C8.00578 5.44931 8.07331 5.54629 8.15813 5.62687L17.9981 15.0019L8.15813 24.3731C8.07331 24.4537 8.00577 24.5507 7.95962 24.6582C7.91347 24.7657 7.88967 24.8814 7.88967 24.9984C7.88967 25.1154 7.91347 25.2312 7.95962 25.3387C8.00577 25.4462 8.07331 25.5432 8.15813 25.6237L8.16938 25.635C8.34373 25.8012 8.57537 25.8939 8.81625 25.8939C9.05713 25.8939 9.28877 25.8012 9.46313 25.635L19.9125 15.6787C20.0044 15.5912 20.0776 15.4859 20.1275 15.3692C20.1775 15.2525 20.2033 15.1269 20.2033 15C20.2033 14.8731 20.1775 14.7475 20.1276 14.6308C20.0776 14.5141 20.0044 14.4088 19.9125 14.3212Z" fill="#F3F3F3"/>
</svg>
