<svg width="47" height="47" viewBox="0 0 47 47" fill="none" xmlns="http://www.w3.org/2000/svg">
<path d="M31.1962 22.4366L14.8256 6.83849C14.5524 6.57809 14.1895 6.43283 13.8121 6.43283C13.4347 6.43283 13.0718 6.57809 12.7987 6.83849L12.7811 6.85611C12.6482 6.98234 12.5424 7.13429 12.4701 7.30271C12.3978 7.47112 12.3605 7.65249 12.3605 7.83577C12.3605 8.01905 12.3978 8.20041 12.4701 8.36883C12.5424 8.53724 12.6482 8.68919 12.7811 8.81542L28.1971 23.5029L12.7811 38.1845C12.6482 38.3108 12.5424 38.4627 12.4701 38.6311C12.3978 38.7996 12.3605 38.9809 12.3605 39.1642C12.3605 39.3475 12.3978 39.5288 12.4701 39.6973C12.5424 39.8657 12.6482 40.0176 12.7811 40.1439L12.7987 40.1615C13.0718 40.4219 13.4347 40.5671 13.8121 40.5671C14.1895 40.5671 14.5524 40.4219 14.8256 40.1615L31.1962 24.5634C31.3402 24.4262 31.4548 24.2612 31.5332 24.0784C31.6115 23.8956 31.6519 23.6988 31.6519 23.5C31.6519 23.3011 31.6115 23.1043 31.5332 22.9216C31.4548 22.7388 31.3402 22.5738 31.1962 22.4366Z" fill="#F3F3F3" fill-opacity="0.7"/>
</svg>
