<svg width="21" height="22" viewBox="0 0 21 22" fill="none" xmlns="http://www.w3.org/2000/svg">
<path d="M3.58697 17.9565C3.10871 17.9565 2.69943 17.7864 2.35914 17.4461C2.01885 17.1058 1.84842 16.6962 1.84784 16.2174V5.78259C1.84784 5.30433 2.01827 4.89505 2.35914 4.55476C2.70001 4.21447 3.10929 4.04404 3.58697 4.04346H17.5C17.9783 4.04346 18.3878 4.21389 18.7287 4.55476C19.0696 4.89563 19.2397 5.30491 19.2391 5.78259V16.2174C19.2391 16.6956 19.069 17.1052 18.7287 17.4461C18.3884 17.7869 17.9789 17.9571 17.5 17.9565H3.58697ZM10.5435 11.8695L3.58697 7.52172V16.2174H17.5V7.52172L10.5435 11.8695ZM10.5435 10.1304L17.5 5.78259H3.58697L10.5435 10.1304ZM3.58697 7.52172V5.78259V16.2174V7.52172Z" fill="#333333"/>
</svg>
