<svg width="26" height="26" viewBox="0 0 26 26" fill="none" xmlns="http://www.w3.org/2000/svg">
<path d="M22.3447 6.03622L19.6315 3.32563C19.3003 2.99444 18.8571 2.80847 18.3883 2.80847C17.9196 2.80847 17.4763 2.9919 17.1451 3.32563L14.2231 6.24258C13.8919 6.57376 13.7059 7.01958 13.7059 7.48833C13.7059 7.95963 13.8893 8.40035 14.2231 8.73408L16.5057 11.0192C15.9857 12.2308 15.2385 13.3316 14.3046 14.2623C13.3696 15.2023 12.2767 15.9437 11.0641 16.4685L8.78149 14.1833C8.45031 13.8521 8.00703 13.6661 7.53828 13.6661C7.30708 13.6653 7.07802 13.7106 6.86455 13.7994C6.65107 13.8882 6.45747 14.0187 6.29508 14.1833L3.37049 17.1003C3.0393 17.4314 2.85333 17.8773 2.85333 18.346C2.85333 18.8173 3.03676 19.258 3.37049 19.5918L6.08108 22.3024C6.64664 22.8679 7.42619 23.1915 8.22612 23.1915C8.39172 23.1915 8.55221 23.1787 8.71526 23.1507C12.0882 22.5953 15.4357 20.7993 18.1387 18.0989C20.8391 15.3934 22.6325 12.0459 23.193 8.67039C23.3535 7.71251 23.0325 6.72661 22.3447 6.03622ZM21.3868 8.36724C20.89 11.3708 19.2749 14.3667 16.842 16.7996C14.409 19.2326 11.4157 20.8477 8.4121 21.3445C8.03506 21.4082 7.64783 21.2808 7.37269 21.0082L4.7105 18.346L7.53319 15.5208L10.5852 18.5778L10.6081 18.6008L11.1584 18.397C12.8268 17.7835 14.3419 16.8146 15.5987 15.5574C16.8555 14.3002 17.8239 12.7847 18.4367 11.116L18.6405 10.5658L15.5631 7.49088L18.3858 4.66564L21.048 7.32783C21.3231 7.60297 21.4505 7.9902 21.3868 8.36724Z" fill="#333333"/>
</svg>
