<svg width="35" height="20" viewBox="0 0 35 20" fill="none" xmlns="http://www.w3.org/2000/svg">
<path d="M16.4097 0.472343L0.415943 17.4444C0.148945 17.7276 0 18.1038 0 18.495C0 18.8863 0.148945 19.2625 0.415943 19.5457L0.434015 19.564C0.563451 19.7017 0.71925 19.8114 0.891937 19.8864C1.06462 19.9613 1.25059 20 1.43852 20C1.62644 20 1.81241 19.9613 1.9851 19.8864C2.15778 19.8114 2.31358 19.7017 2.44302 19.564L17.503 3.5817L32.557 19.564C32.6864 19.7017 32.8422 19.8114 33.0149 19.8864C33.1876 19.9613 33.3736 20 33.5615 20C33.7494 20 33.9354 19.9613 34.1081 19.8864C34.2807 19.8114 34.4365 19.7017 34.566 19.564L34.5841 19.5457C34.8511 19.2625 35 18.8863 35 18.495C35 18.1038 34.8511 17.7276 34.5841 17.4444L18.5903 0.472343C18.4497 0.323081 18.2805 0.204252 18.0931 0.123059C17.9057 0.0418663 17.7039 0 17.5 0C17.2961 0 17.0943 0.0418663 16.9069 0.123059C16.7195 0.204252 16.5503 0.323081 16.4097 0.472343Z" fill="#333333"/>
</svg>
