<svg width="40" height="40" viewBox="0 0 40 40" fill="none" xmlns="http://www.w3.org/2000/svg">
<path d="M24.6533 17.9583L18.54 14.4383C18.181 14.2316 17.7741 14.123 17.3599 14.1233C16.9457 14.1236 16.5389 14.2329 16.1803 14.44C15.8217 14.6472 15.5238 14.945 15.3167 15.3037C15.1095 15.6623 15.0003 16.0691 15 16.4833V23.52C14.995 24.3633 15.445 25.1433 16.1766 25.56C16.5354 25.7695 16.9432 25.8802 17.3587 25.8808C17.7741 25.8814 18.1823 25.7718 18.5416 25.5633L24.6533 22.0433C25.0123 21.8369 25.3106 21.5395 25.518 21.181C25.7254 20.8226 25.8346 20.4158 25.8346 20.0016C25.8346 19.5875 25.7254 19.1807 25.518 18.8222C25.3106 18.4638 25.0123 18.1664 24.6533 17.96M23.82 20.5966L17.71 24.1183C17.6041 24.1804 17.4836 24.2132 17.3608 24.2132C17.2381 24.2132 17.1175 24.1804 17.0116 24.1183C16.9054 24.0582 16.8174 23.9706 16.7567 23.8647C16.696 23.7589 16.6649 23.6386 16.6666 23.5166V16.4833C16.6655 16.3618 16.6969 16.2423 16.7575 16.1371C16.8182 16.0318 16.9059 15.9448 17.0116 15.885C17.1166 15.8211 17.2371 15.7873 17.36 15.7873C17.4828 15.7873 17.6034 15.8211 17.7083 15.885L23.82 19.4066C23.9254 19.4662 24.0131 19.5526 24.0741 19.6572C24.1351 19.7617 24.1673 19.8806 24.1673 20.0016C24.1673 20.1227 24.1351 20.2416 24.0741 20.3461C24.0131 20.4506 23.9254 20.5371 23.82 20.5966ZM31.6666 6.66663H8.33331C7.00764 6.66795 5.73664 7.19516 4.79924 8.13255C3.86185 9.06995 3.33464 10.3409 3.33331 11.6666V28.3333C3.33464 29.659 3.86185 30.93 4.79924 31.8674C5.73664 32.8048 7.00764 33.332 8.33331 33.3333H31.6666C32.9923 33.332 34.2633 32.8048 35.2007 31.8674C36.1381 30.93 36.6653 29.659 36.6666 28.3333V11.6666C36.6653 10.3409 36.1381 9.06995 35.2007 8.13255C34.2633 7.19516 32.9923 6.66795 31.6666 6.66663ZM35 28.3333C34.9987 29.2169 34.647 30.064 34.0222 30.6889C33.3974 31.3137 32.5503 31.6653 31.6666 31.6666H8.33331C7.44966 31.6653 6.60259 31.3137 5.97775 30.6889C5.35292 30.064 5.0013 29.2169 4.99998 28.3333V11.6666C5.0013 10.783 5.35292 9.9359 5.97775 9.31106C6.60259 8.68623 7.44966 8.33461 8.33331 8.33329H31.6666C32.5503 8.33461 33.3974 8.68623 34.0222 9.31106C34.647 9.9359 34.9987 10.783 35 11.6666V28.3333Z" fill="black"/>
</svg>
